STARTFONT 2.1
COMMENT
COMMENT Converted from OpenType font "MeleeSans.ttf" by "otf2bdf 3.0".
COMMENT
FONT -FreeType-MeleeSans-Medium-R-Normal--16-160-72-72-P-76-ISO10646-1
SIZE 16 72 72
FONTBOUNDINGBOX 9 12 -2 -2
STARTPROPERTIES 19
FOUNDRY "FreeType"
FAMILY_NAME "MeleeSans"
WEIGHT_NAME "Medium"
SLANT "R"
SETWIDTH_NAME "Normal"
ADD_STYLE_NAME ""
PIXEL_SIZE 16
POINT_SIZE 160
RESOLUTION_X 72
RESOLUTION_Y 72
SPACING "P"
AVERAGE_WIDTH 76
CHARSET_REGISTRY "ISO10646"
CHARSET_ENCODING "1"
FONT_ASCENT 10
FONT_DESCENT 2
COPYRIGHT "ArkanadeEidos"
_OTF_FONTFILE "MeleeSans.ttf"
_OTF_PSNAME "MeleeSans"
ENDPROPERTIES
CHARS 156
STARTCHAR 0020
ENCODING 32
SWIDTH 312 0
DWIDTH 5 0
BBX 0 0 0 0
BITMAP
ENDCHAR
STARTCHAR 0021
ENCODING 33
SWIDTH 187 0
DWIDTH 3 0
BBX 4 9 -2 0
BITMAP
F0
90
90
90
90
90
F0
90
F0
ENDCHAR
STARTCHAR 0022
ENCODING 34
SWIDTH 250 0
DWIDTH 4 0
BBX 5 4 -2 5
BITMAP
F8
A8
A8
F8
ENDCHAR
STARTCHAR 0023
ENCODING 35
SWIDTH 375 0
DWIDTH 6 0
BBX 7 7 -2 0
BITMAP
7C
D6
82
D6
82
D6
7C
ENDCHAR
STARTCHAR 0024
ENCODING 36
SWIDTH 437 0
DWIDTH 7 0
BBX 8 9 -2 -1
BITMAP
1C
77
C1
9F
C3
F9
83
F4
1C
ENDCHAR
STARTCHAR 0025
ENCODING 37
SWIDTH 437 0
DWIDTH 7 0
BBX 8 8 -2 0
BITMAP
FE
9A
92
E6
CF
99
B9
FF
ENDCHAR
STARTCHAR 0026
ENCODING 38
SWIDTH 437 0
DWIDTH 7 0
BBX 8 8 -2 0
BITMAP
7C
44
D4
8F
B5
B3
89
FF
ENDCHAR
STARTCHAR 0027
ENCODING 39
SWIDTH 125 0
DWIDTH 2 0
BBX 3 5 -2 5
BITMAP
E0
A0
A0
A0
E0
ENDCHAR
STARTCHAR 0028
ENCODING 40
SWIDTH 250 0
DWIDTH 4 0
BBX 5 9 -2 0
BITMAP
78
C8
90
90
90
90
90
C8
78
ENDCHAR
STARTCHAR 0029
ENCODING 41
SWIDTH 250 0
DWIDTH 4 0
BBX 5 9 -2 0
BITMAP
F0
98
C8
48
48
48
C8
98
F0
ENDCHAR
STARTCHAR 002A
ENCODING 42
SWIDTH 375 0
DWIDTH 6 0
BBX 7 7 -2 0
BITMAP
FE
AA
C6
82
C6
AA
FE
ENDCHAR
STARTCHAR 002B
ENCODING 43
SWIDTH 437 0
DWIDTH 7 0
BBX 8 7 -2 0
BITMAP
3C
24
E7
81
E7
24
3C
ENDCHAR
STARTCHAR 002C
ENCODING 44
SWIDTH 312 0
DWIDTH 5 0
BBX 5 5 -1 -1
BITMAP
78
48
C8
98
F0
ENDCHAR
STARTCHAR 002D
ENCODING 45
SWIDTH 312 0
DWIDTH 5 0
BBX 5 3 -1 2
BITMAP
F8
88
F8
ENDCHAR
STARTCHAR 002E
ENCODING 46
SWIDTH 187 0
DWIDTH 3 0
BBX 4 4 -2 0
BITMAP
F0
90
90
F0
ENDCHAR
STARTCHAR 002F
ENCODING 47
SWIDTH 312 0
DWIDTH 5 0
BBX 6 8 -2 0
BITMAP
3C
24
64
4C
C8
98
90
F0
ENDCHAR
STARTCHAR 0030
ENCODING 48
SWIDTH 437 0
DWIDTH 7 0
BBX 8 9 -2 0
BITMAP
7E
C3
99
99
99
99
99
C3
7E
ENDCHAR
STARTCHAR 0031
ENCODING 49
SWIDTH 437 0
DWIDTH 7 0
BBX 8 9 -2 0
BITMAP
3C
24
64
44
64
24
E7
81
FF
ENDCHAR
STARTCHAR 0032
ENCODING 50
SWIDTH 437 0
DWIDTH 7 0
BBX 8 9 -2 0
BITMAP
7E
C3
99
F9
73
CE
9F
81
FF
ENDCHAR
STARTCHAR 0033
ENCODING 51
SWIDTH 437 0
DWIDTH 7 0
BBX 8 9 -2 0
BITMAP
7E
C3
99
F9
23
F9
99
C3
7E
ENDCHAR
STARTCHAR 0034
ENCODING 52
SWIDTH 500 0
DWIDTH 8 0
BBX 9 9 -2 0
BITMAP
0F00
1900
3100
E100
9980
8080
F980
0900
0F00
ENDCHAR
STARTCHAR 0035
ENCODING 53
SWIDTH 500 0
DWIDTH 8 0
BBX 9 9 -2 0
BITMAP
FF80
8080
9F80
8180
7C80
FC80
9C80
C180
7F00
ENDCHAR
STARTCHAR 0036
ENCODING 54
SWIDTH 437 0
DWIDTH 7 0
BBX 8 9 -2 0
BITMAP
7E
C3
99
9F
83
99
99
C3
7E
ENDCHAR
STARTCHAR 0037
ENCODING 55
SWIDTH 500 0
DWIDTH 8 0
BBX 9 9 -2 0
BITMAP
FF80
8080
9C80
F980
3300
6600
4C00
4800
7800
ENDCHAR
STARTCHAR 0038
ENCODING 56
SWIDTH 437 0
DWIDTH 7 0
BBX 8 9 -2 0
BITMAP
7E
C3
99
99
C3
99
99
C3
7E
ENDCHAR
STARTCHAR 0039
ENCODING 57
SWIDTH 437 0
DWIDTH 7 0
BBX 8 9 -2 0
BITMAP
7E
C3
99
99
C1
F9
99
C3
7E
ENDCHAR
STARTCHAR 003A
ENCODING 58
SWIDTH 187 0
DWIDTH 3 0
BBX 4 7 -2 0
BITMAP
F0
90
90
F0
90
90
F0
ENDCHAR
STARTCHAR 003B
ENCODING 59
SWIDTH 187 0
DWIDTH 3 0
BBX 4 8 -2 -1
BITMAP
F0
90
90
F0
90
90
B0
E0
ENDCHAR
STARTCHAR 003C
ENCODING 60
SWIDTH 312 0
DWIDTH 5 0
BBX 6 7 -2 0
BITMAP
3C
64
CC
98
CC
64
3C
ENDCHAR
STARTCHAR 003D
ENCODING 61
SWIDTH 312 0
DWIDTH 5 0
BBX 6 5 -2 1
BITMAP
FC
84
FC
84
FC
ENDCHAR
STARTCHAR 003E
ENCODING 62
SWIDTH 312 0
DWIDTH 5 0
BBX 6 7 -2 0
BITMAP
F0
98
CC
64
CC
98
F0
ENDCHAR
STARTCHAR 003F
ENCODING 63
SWIDTH 375 0
DWIDTH 6 0
BBX 7 9 -2 0
BITMAP
7C
C6
92
F2
26
24
3C
24
3C
ENDCHAR
STARTCHAR 0040
ENCODING 64
SWIDTH 500 0
DWIDTH 8 0
BBX 9 9 -2 0
BITMAP
7F00
C180
9C80
A280
AA80
B180
9F00
C080
7F80
ENDCHAR
STARTCHAR 0041
ENCODING 65
SWIDTH 437 0
DWIDTH 7 0
BBX 8 9 -2 0
BITMAP
7E
C3
99
99
99
81
99
99
FF
ENDCHAR
STARTCHAR 0042
ENCODING 66
SWIDTH 437 0
DWIDTH 7 0
BBX 8 9 -2 0
BITMAP
FE
83
99
99
83
99
99
83
FE
ENDCHAR
STARTCHAR 0043
ENCODING 67
SWIDTH 437 0
DWIDTH 7 0
BBX 8 9 -2 0
BITMAP
7E
C3
99
99
9F
99
99
C3
7E
ENDCHAR
STARTCHAR 0044
ENCODING 68
SWIDTH 437 0
DWIDTH 7 0
BBX 8 9 -2 0
BITMAP
FE
83
99
99
99
99
99
83
FE
ENDCHAR
STARTCHAR 0045
ENCODING 69
SWIDTH 437 0
DWIDTH 7 0
BBX 8 9 -2 0
BITMAP
FF
81
9F
9E
82
9E
9F
81
FF
ENDCHAR
STARTCHAR 0046
ENCODING 70
SWIDTH 437 0
DWIDTH 7 0
BBX 8 9 -2 0
BITMAP
FF
81
9F
9E
82
9E
90
90
F0
ENDCHAR
STARTCHAR 0047
ENCODING 71
SWIDTH 437 0
DWIDTH 7 0
BBX 8 9 -2 0
BITMAP
7E
C3
99
9F
91
99
99
C3
7E
ENDCHAR
STARTCHAR 0048
ENCODING 72
SWIDTH 437 0
DWIDTH 7 0
BBX 8 9 -2 0
BITMAP
FF
99
99
99
81
99
99
99
FF
ENDCHAR
STARTCHAR 0049
ENCODING 73
SWIDTH 312 0
DWIDTH 5 0
BBX 6 9 -2 0
BITMAP
FC
84
CC
48
48
48
CC
84
FC
ENDCHAR
STARTCHAR 004A
ENCODING 74
SWIDTH 437 0
DWIDTH 7 0
BBX 8 9 -2 0
BITMAP
3F
21
33
12
12
F2
92
C6
7C
ENDCHAR
STARTCHAR 004B
ENCODING 75
SWIDTH 437 0
DWIDTH 7 0
BBX 8 9 -2 0
BITMAP
FF
99
99
93
87
93
99
99
FF
ENDCHAR
STARTCHAR 004C
ENCODING 76
SWIDTH 375 0
DWIDTH 6 0
BBX 7 9 -2 0
BITMAP
F0
90
90
90
90
90
9E
82
FE
ENDCHAR
STARTCHAR 004D
ENCODING 77
SWIDTH 500 0
DWIDTH 8 0
BBX 9 9 -2 0
BITMAP
F780
9C80
8880
8080
9480
9C80
9480
9480
F780
ENDCHAR
STARTCHAR 004E
ENCODING 78
SWIDTH 437 0
DWIDTH 7 0
BBX 8 9 -2 0
BITMAP
FF
99
99
89
81
91
99
99
FF
ENDCHAR
STARTCHAR 004F
ENCODING 79
SWIDTH 437 0
DWIDTH 7 0
BBX 8 9 -2 0
BITMAP
7E
C3
99
99
99
99
99
C3
7E
ENDCHAR
STARTCHAR 0050
ENCODING 80
SWIDTH 437 0
DWIDTH 7 0
BBX 8 9 -2 0
BITMAP
FE
83
99
99
83
9E
90
90
F0
ENDCHAR
STARTCHAR 0051
ENCODING 81
SWIDTH 500 0
DWIDTH 8 0
BBX 9 10 -2 -1
BITMAP
7E00
C300
9900
9900
9900
9900
9900
C100
7880
0F80
ENDCHAR
STARTCHAR 0052
ENCODING 82
SWIDTH 437 0
DWIDTH 7 0
BBX 8 9 -2 0
BITMAP
FE
83
99
99
83
86
93
99
FF
ENDCHAR
STARTCHAR 0053
ENCODING 83
SWIDTH 437 0
DWIDTH 7 0
BBX 8 9 -2 0
BITMAP
7E
C3
99
9F
C3
F9
99
C3
7E
ENDCHAR
STARTCHAR 0054
ENCODING 84
SWIDTH 437 0
DWIDTH 7 0
BBX 8 9 -2 0
BITMAP
FF
81
E7
24
24
24
24
24
3C
ENDCHAR
STARTCHAR 0055
ENCODING 85
SWIDTH 437 0
DWIDTH 7 0
BBX 8 9 -2 0
BITMAP
FF
99
99
99
99
99
99
C3
7E
ENDCHAR
STARTCHAR 0056
ENCODING 86
SWIDTH 437 0
DWIDTH 7 0
BBX 8 9 -2 0
BITMAP
FF
99
99
99
99
99
C3
66
3C
ENDCHAR
STARTCHAR 0057
ENCODING 87
SWIDTH 500 0
DWIDTH 8 0
BBX 9 9 -2 0
BITMAP
F780
9480
9C80
9480
9480
8080
8880
DD80
7700
ENDCHAR
STARTCHAR 0058
ENCODING 88
SWIDTH 500 0
DWIDTH 8 0
BBX 9 9 -2 0
BITMAP
F780
9C80
8880
C180
6300
C180
8880
9C80
F780
ENDCHAR
STARTCHAR 0059
ENCODING 89
SWIDTH 437 0
DWIDTH 7 0
BBX 8 9 -2 0
BITMAP
FF
99
99
99
C3
66
24
24
3C
ENDCHAR
STARTCHAR 005A
ENCODING 90
SWIDTH 437 0
DWIDTH 7 0
BBX 8 9 -2 0
BITMAP
FF
81
F9
12
24
48
9F
81
FF
ENDCHAR
STARTCHAR 005B
ENCODING 91
SWIDTH 250 0
DWIDTH 4 0
BBX 5 9 -2 0
BITMAP
F8
88
98
90
90
90
98
88
F8
ENDCHAR
STARTCHAR 005C
ENCODING 92
SWIDTH 312 0
DWIDTH 5 0
BBX 6 8 -2 0
BITMAP
F0
90
98
C8
4C
64
24
3C
ENDCHAR
STARTCHAR 005D
ENCODING 93
SWIDTH 250 0
DWIDTH 4 0
BBX 5 9 -2 0
BITMAP
F8
88
C8
48
48
48
C8
88
F8
ENDCHAR
STARTCHAR 005E
ENCODING 94
SWIDTH 437 0
DWIDTH 7 0
BBX 8 4 -2 5
BITMAP
3C
66
99
FF
ENDCHAR
STARTCHAR 005F
ENCODING 95
SWIDTH 312 0
DWIDTH 5 0
BBX 6 3 -2 0
BITMAP
FC
84
FC
ENDCHAR
STARTCHAR 0060
ENCODING 96
SWIDTH 312 0
DWIDTH 5 0
BBX 5 4 -1 5
BITMAP
F0
98
C8
78
ENDCHAR
STARTCHAR 0061
ENCODING 97
SWIDTH 437 0
DWIDTH 7 0
BBX 8 7 -2 0
BITMAP
7E
43
79
C1
99
C1
7F
ENDCHAR
STARTCHAR 0062
ENCODING 98
SWIDTH 437 0
DWIDTH 7 0
BBX 8 8 -2 0
BITMAP
F0
90
9E
83
99
99
83
FE
ENDCHAR
STARTCHAR 0063
ENCODING 99
SWIDTH 375 0
DWIDTH 6 0
BBX 7 7 -2 0
BITMAP
7E
C2
9E
98
9E
C2
7E
ENDCHAR
STARTCHAR 0064
ENCODING 100
SWIDTH 437 0
DWIDTH 7 0
BBX 8 9 -2 0
BITMAP
0F
09
79
C1
99
99
99
C1
7F
ENDCHAR
STARTCHAR 0065
ENCODING 101
SWIDTH 437 0
DWIDTH 7 0
BBX 8 7 -2 0
BITMAP
7E
C3
99
81
9F
C2
7E
ENDCHAR
STARTCHAR 0066
ENCODING 102
SWIDTH 375 0
DWIDTH 6 0
BBX 7 9 -2 0
BITMAP
7E
C2
9E
84
9C
90
90
90
F0
ENDCHAR
STARTCHAR 0067
ENCODING 103
SWIDTH 437 0
DWIDTH 7 0
BBX 8 8 -2 -1
BITMAP
7F
C1
99
99
C1
F9
83
FE
ENDCHAR
STARTCHAR 0068
ENCODING 104
SWIDTH 437 0
DWIDTH 7 0
BBX 8 9 -2 0
BITMAP
F0
90
9E
83
99
99
99
99
FF
ENDCHAR
STARTCHAR 0069
ENCODING 105
SWIDTH 375 0
DWIDTH 6 0
BBX 6 8 -1 0
BITMAP
78
48
F8
88
C8
CC
84
FC
ENDCHAR
STARTCHAR 006A
ENCODING 106
SWIDTH 312 0
DWIDTH 5 0
BBX 6 10 -2 -2
BITMAP
3C
24
7C
44
64
24
24
E4
8C
F8
ENDCHAR
STARTCHAR 006B
ENCODING 107
SWIDTH 437 0
DWIDTH 7 0
BBX 8 9 -2 0
BITMAP
F0
90
90
9E
92
86
93
99
FF
ENDCHAR
STARTCHAR 006C
ENCODING 108
SWIDTH 375 0
DWIDTH 6 0
BBX 6 9 -1 0
BITMAP
F8
88
C8
48
48
48
CC
84
FC
ENDCHAR
STARTCHAR 006D
ENCODING 109
SWIDTH 500 0
DWIDTH 8 0
BBX 9 7 -2 0
BITMAP
FF00
9980
8080
8080
9480
9C80
F780
ENDCHAR
STARTCHAR 006E
ENCODING 110
SWIDTH 437 0
DWIDTH 7 0
BBX 8 7 -2 0
BITMAP
FE
83
99
99
99
99
FF
ENDCHAR
STARTCHAR 006F
ENCODING 111
SWIDTH 437 0
DWIDTH 7 0
BBX 8 7 -2 0
BITMAP
7E
C3
99
99
99
C3
7E
ENDCHAR
STARTCHAR 0070
ENCODING 112
SWIDTH 437 0
DWIDTH 7 0
BBX 8 8 -2 -1
BITMAP
FE
83
99
99
83
9E
90
F0
ENDCHAR
STARTCHAR 0071
ENCODING 113
SWIDTH 437 0
DWIDTH 7 0
BBX 8 8 -2 -1
BITMAP
7F
C1
99
99
C1
79
09
0F
ENDCHAR
STARTCHAR 0072
ENCODING 114
SWIDTH 437 0
DWIDTH 7 0
BBX 8 7 -2 0
BITMAP
FE
83
99
9F
90
90
F0
ENDCHAR
STARTCHAR 0073
ENCODING 115
SWIDTH 437 0
DWIDTH 7 0
BBX 8 7 -2 0
BITMAP
7F
C1
9F
C3
F9
83
FC
ENDCHAR
STARTCHAR 0074
ENCODING 116
SWIDTH 437 0
DWIDTH 7 0
BBX 8 9 -2 0
BITMAP
3C
24
E7
81
E7
24
27
31
1F
ENDCHAR
STARTCHAR 0075
ENCODING 117
SWIDTH 437 0
DWIDTH 7 0
BBX 8 7 -2 0
BITMAP
FF
99
99
99
99
C1
7F
ENDCHAR
STARTCHAR 0076
ENCODING 118
SWIDTH 437 0
DWIDTH 7 0
BBX 8 7 -2 0
BITMAP
FF
99
99
99
C3
66
3C
ENDCHAR
STARTCHAR 0077
ENCODING 119
SWIDTH 500 0
DWIDTH 8 0
BBX 9 7 -2 0
BITMAP
F780
9C80
9480
8080
C180
4900
7F00
ENDCHAR
STARTCHAR 0078
ENCODING 120
SWIDTH 437 0
DWIDTH 7 0
BBX 8 7 -2 0
BITMAP
FF
99
C3
66
C3
99
FF
ENDCHAR
STARTCHAR 0079
ENCODING 121
SWIDTH 437 0
DWIDTH 7 0
BBX 8 8 -2 -1
BITMAP
FF
99
99
99
C1
F3
86
FC
ENDCHAR
STARTCHAR 007A
ENCODING 122
SWIDTH 437 0
DWIDTH 7 0
BBX 8 7 -2 0
BITMAP
FF
81
F3
66
CF
81
FF
ENDCHAR
STARTCHAR 007B
ENCODING 123
SWIDTH 312 0
DWIDTH 5 0
BBX 6 9 -2 0
BITMAP
3C
64
4C
C8
98
C8
4C
64
3C
ENDCHAR
STARTCHAR 007C
ENCODING 124
SWIDTH 125 0
DWIDTH 2 0
BBX 3 9 -2 0
BITMAP
E0
A0
A0
A0
A0
A0
A0
A0
E0
ENDCHAR
STARTCHAR 007D
ENCODING 125
SWIDTH 312 0
DWIDTH 5 0
BBX 6 9 -2 0
BITMAP
F0
98
C8
4C
64
4C
C8
98
F0
ENDCHAR
STARTCHAR 007E
ENCODING 126
SWIDTH 375 0
DWIDTH 6 0
BBX 7 4 -2 5
BITMAP
FE
8A
A2
FE
ENDCHAR
STARTCHAR 00A0
ENCODING 160
SWIDTH 312 0
DWIDTH 5 0
BBX 0 0 0 0
BITMAP
ENDCHAR
STARTCHAR 00A1
ENCODING 161
SWIDTH 187 0
DWIDTH 3 0
BBX 4 9 -2 0
BITMAP
F0
90
F0
90
90
90
90
90
F0
ENDCHAR
STARTCHAR 00A2
ENCODING 162
SWIDTH 375 0
DWIDTH 6 0
BBX 7 9 -2 0
BITMAP
1C
76
C2
9E
98
9E
C2
76
1C
ENDCHAR
STARTCHAR 00A3
ENCODING 163
SWIDTH 437 0
DWIDTH 7 0
BBX 8 9 -2 0
BITMAP
3E
62
4E
CE
82
9E
9F
81
FF
ENDCHAR
STARTCHAR 00A4
ENCODING 164
SWIDTH 437 0
DWIDTH 7 0
BBX 8 8 -2 0
BITMAP
E7
BD
C3
5A
5A
C3
BD
E7
ENDCHAR
STARTCHAR 00A5
ENCODING 165
SWIDTH 437 0
DWIDTH 7 0
BBX 8 8 -2 0
BITMAP
FF
99
99
C3
66
42
66
3C
ENDCHAR
STARTCHAR 00A6
ENCODING 166
SWIDTH 125 0
DWIDTH 2 0
BBX 3 9 -2 0
BITMAP
E0
A0
A0
A0
E0
A0
A0
A0
E0
ENDCHAR
STARTCHAR 00A7
ENCODING 167
SWIDTH 312 0
DWIDTH 5 0
BBX 6 10 -2 -1
BITMAP
7C
C4
BC
8C
B4
B4
C4
F4
8C
F8
ENDCHAR
STARTCHAR 00A8
ENCODING 168
SWIDTH 312 0
DWIDTH 5 0
BBX 6 3 -2 6
BITMAP
FC
84
FC
ENDCHAR
STARTCHAR 00A9
ENCODING 169
SWIDTH 500 0
DWIDTH 8 0
BBX 9 9 -2 0
BITMAP
7F00
C180
9C80
A280
AE80
A280
9C80
C180
7F00
ENDCHAR
STARTCHAR 00B4
ENCODING 180
SWIDTH 437 0
DWIDTH 7 0
BBX 5 4 1 6
BITMAP
38
48
90
E0
ENDCHAR
STARTCHAR 00C0
ENCODING 192
SWIDTH 437 0
DWIDTH 7 0
BBX 8 9 -2 0
BITMAP
48
24
7E
C3
99
99
81
99
FF
ENDCHAR
STARTCHAR 00C1
ENCODING 193
SWIDTH 437 0
DWIDTH 7 0
BBX 8 9 -2 0
BITMAP
12
24
7E
C3
99
99
81
99
FF
ENDCHAR
STARTCHAR 00C2
ENCODING 194
SWIDTH 437 0
DWIDTH 7 0
BBX 8 9 -2 0
BITMAP
24
5A
7E
C3
99
99
81
99
FF
ENDCHAR
STARTCHAR 00C3
ENCODING 195
SWIDTH 437 0
DWIDTH 7 0
BBX 8 9 -2 0
BITMAP
12
24
7E
C3
99
99
81
99
FF
ENDCHAR
STARTCHAR 00C4
ENCODING 196
SWIDTH 437 0
DWIDTH 7 0
BBX 8 9 -2 0
BITMAP
FE
92
7E
C3
99
99
81
99
FF
ENDCHAR
STARTCHAR 00C5
ENCODING 197
SWIDTH 437 0
DWIDTH 7 0
BBX 8 9 -2 0
BITMAP
5A
24
7E
C3
99
99
81
99
FF
ENDCHAR
STARTCHAR 00C8
ENCODING 200
SWIDTH 437 0
DWIDTH 7 0
BBX 8 9 -2 0
BITMAP
48
24
FF
81
9F
82
9F
81
FF
ENDCHAR
STARTCHAR 00C9
ENCODING 201
SWIDTH 437 0
DWIDTH 7 0
BBX 8 9 -2 0
BITMAP
12
24
FF
81
9F
82
9F
81
FF
ENDCHAR
STARTCHAR 00CA
ENCODING 202
SWIDTH 437 0
DWIDTH 7 0
BBX 8 9 -2 0
BITMAP
24
5A
FF
81
9F
82
9F
81
FF
ENDCHAR
STARTCHAR 00CB
ENCODING 203
SWIDTH 437 0
DWIDTH 7 0
BBX 8 9 -2 0
BITMAP
7E
49
FF
81
9F
82
9F
81
FF
ENDCHAR
STARTCHAR 00CC
ENCODING 204
SWIDTH 312 0
DWIDTH 5 0
BBX 6 9 -2 0
BITMAP
90
48
FC
84
CC
48
CC
84
FC
ENDCHAR
STARTCHAR 00CD
ENCODING 205
SWIDTH 312 0
DWIDTH 5 0
BBX 6 9 -2 0
BITMAP
24
48
FC
84
CC
48
CC
84
FC
ENDCHAR
STARTCHAR 00CE
ENCODING 206
SWIDTH 312 0
DWIDTH 5 0
BBX 6 9 -2 0
BITMAP
48
B4
FC
84
CC
48
CC
84
FC
ENDCHAR
STARTCHAR 00CF
ENCODING 207
SWIDTH 312 0
DWIDTH 5 0
BBX 6 9 -2 0
BITMAP
FC
24
FC
84
CC
48
CC
84
FC
ENDCHAR
STARTCHAR 00D1
ENCODING 209
SWIDTH 437 0
DWIDTH 7 0
BBX 8 9 -2 0
BITMAP
7E
42
FF
99
89
81
91
99
FF
ENDCHAR
STARTCHAR 00D2
ENCODING 210
SWIDTH 437 0
DWIDTH 7 0
BBX 8 9 -2 0
BITMAP
48
24
7E
C3
99
99
99
C3
7E
ENDCHAR
STARTCHAR 00D3
ENCODING 211
SWIDTH 437 0
DWIDTH 7 0
BBX 8 9 -2 0
BITMAP
12
24
7E
C3
99
99
99
C3
7E
ENDCHAR
STARTCHAR 00D4
ENCODING 212
SWIDTH 437 0
DWIDTH 7 0
BBX 8 9 -2 0
BITMAP
24
5A
7E
C3
99
99
99
C3
7E
ENDCHAR
STARTCHAR 00D5
ENCODING 213
SWIDTH 437 0
DWIDTH 7 0
BBX 8 9 -2 0
BITMAP
4D
B3
7E
C3
99
99
99
C3
7E
ENDCHAR
STARTCHAR 00D6
ENCODING 214
SWIDTH 437 0
DWIDTH 7 0
BBX 8 9 -2 0
BITMAP
FE
92
7E
C3
99
99
99
C3
7E
ENDCHAR
STARTCHAR 00D9
ENCODING 217
SWIDTH 437 0
DWIDTH 7 0
BBX 8 9 -2 0
BITMAP
48
24
FF
99
99
99
99
C3
7E
ENDCHAR
STARTCHAR 00DA
ENCODING 218
SWIDTH 437 0
DWIDTH 7 0
BBX 8 9 -2 0
BITMAP
12
24
FF
99
99
99
99
C3
7E
ENDCHAR
STARTCHAR 00DB
ENCODING 219
SWIDTH 437 0
DWIDTH 7 0
BBX 8 9 -2 0
BITMAP
24
5A
FF
99
99
99
99
C3
7E
ENDCHAR
STARTCHAR 00DC
ENCODING 220
SWIDTH 437 0
DWIDTH 7 0
BBX 8 9 -2 0
BITMAP
7F
49
FF
99
99
99
99
C3
7E
ENDCHAR
STARTCHAR 00E0
ENCODING 224
SWIDTH 437 0
DWIDTH 7 0
BBX 8 9 -2 0
BITMAP
48
24
7E
43
79
C1
99
C1
7F
ENDCHAR
STARTCHAR 00E1
ENCODING 225
SWIDTH 437 0
DWIDTH 7 0
BBX 8 9 -2 0
BITMAP
12
24
7E
43
79
C1
99
C1
7F
ENDCHAR
STARTCHAR 00E2
ENCODING 226
SWIDTH 437 0
DWIDTH 7 0
BBX 8 9 -2 0
BITMAP
66
5A
7E
43
79
C1
99
C1
7F
ENDCHAR
STARTCHAR 00E3
ENCODING 227
SWIDTH 437 0
DWIDTH 7 0
BBX 8 9 -2 0
BITMAP
66
59
7F
43
79
C1
99
C1
7F
ENDCHAR
STARTCHAR 00E4
ENCODING 228
SWIDTH 437 0
DWIDTH 7 0
BBX 8 9 -2 0
BITMAP
7F
49
7F
43
79
C1
99
C1
7F
ENDCHAR
STARTCHAR 00E5
ENCODING 229
SWIDTH 437 0
DWIDTH 7 0
BBX 8 9 -2 0
BITMAP
5A
66
3C
43
79
C1
99
C1
7F
ENDCHAR
STARTCHAR 00E8
ENCODING 232
SWIDTH 437 0
DWIDTH 7 0
BBX 8 9 -2 0
BITMAP
48
24
7E
C3
99
81
9F
C2
7E
ENDCHAR
STARTCHAR 00E9
ENCODING 233
SWIDTH 437 0
DWIDTH 7 0
BBX 8 9 -2 0
BITMAP
12
24
7E
C3
99
81
9F
C2
7E
ENDCHAR
STARTCHAR 00EA
ENCODING 234
SWIDTH 437 0
DWIDTH 7 0
BBX 8 9 -2 0
BITMAP
24
5A
7E
C3
99
81
9F
C2
7E
ENDCHAR
STARTCHAR 00EB
ENCODING 235
SWIDTH 437 0
DWIDTH 7 0
BBX 8 9 -2 0
BITMAP
FE
92
FE
C3
99
81
9F
C2
7E
ENDCHAR
STARTCHAR 00EC
ENCODING 236
SWIDTH 375 0
DWIDTH 6 0
BBX 6 9 -1 0
BITMAP
E0
90
48
F8
88
C8
CC
84
FC
ENDCHAR
STARTCHAR 00ED
ENCODING 237
SWIDTH 375 0
DWIDTH 6 0
BBX 6 9 -1 0
BITMAP
3C
64
4C
F8
88
C8
CC
84
FC
ENDCHAR
STARTCHAR 00EE
ENCODING 238
SWIDTH 375 0
DWIDTH 6 0
BBX 6 9 -1 0
BITMAP
70
D8
A8
F8
88
C8
CC
84
FC
ENDCHAR
STARTCHAR 00EF
ENCODING 239
SWIDTH 375 0
DWIDTH 6 0
BBX 7 8 -2 0
BITMAP
FE
92
FE
44
64
66
42
7E
ENDCHAR
STARTCHAR 00F1
ENCODING 241
SWIDTH 437 0
DWIDTH 7 0
BBX 8 9 -2 0
BITMAP
7C
44
FE
83
99
99
99
99
FF
ENDCHAR
STARTCHAR 00F2
ENCODING 242
SWIDTH 437 0
DWIDTH 7 0
BBX 8 9 -2 0
BITMAP
78
4C
24
7E
C3
99
99
C3
7E
ENDCHAR
STARTCHAR 00F3
ENCODING 243
SWIDTH 437 0
DWIDTH 7 0
BBX 8 9 -2 0
BITMAP
1E
12
24
7E
C3
99
99
C3
7E
ENDCHAR
STARTCHAR 00F4
ENCODING 244
SWIDTH 437 0
DWIDTH 7 0
BBX 8 9 -2 0
BITMAP
3C
66
5A
7E
C3
99
99
C3
7E
ENDCHAR
STARTCHAR 00F5
ENCODING 245
SWIDTH 437 0
DWIDTH 7 0
BBX 8 9 -2 0
BITMAP
3E
6A
54
7E
C3
99
99
C3
7E
ENDCHAR
STARTCHAR 00F6
ENCODING 246
SWIDTH 437 0
DWIDTH 7 0
BBX 8 9 -2 0
BITMAP
FE
92
92
FE
C3
99
99
C3
7E
ENDCHAR
STARTCHAR 00F9
ENCODING 249
SWIDTH 437 0
DWIDTH 7 0
BBX 8 9 -2 0
BITMAP
48
24
FF
99
99
99
99
C1
7F
ENDCHAR
STARTCHAR 00FA
ENCODING 250
SWIDTH 437 0
DWIDTH 7 0
BBX 8 9 -2 0
BITMAP
32
24
FF
99
99
99
99
C1
7F
ENDCHAR
STARTCHAR 00FB
ENCODING 251
SWIDTH 437 0
DWIDTH 7 0
BBX 8 9 -2 0
BITMAP
66
5A
FF
99
99
99
99
C1
7F
ENDCHAR
STARTCHAR 00FC
ENCODING 252
SWIDTH 437 0
DWIDTH 7 0
BBX 8 9 -2 0
BITMAP
FE
92
FF
99
99
99
99
C1
7F
ENDCHAR
STARTCHAR 20AC
ENCODING 8364
SWIDTH 437 0
DWIDTH 7 0
BBX 8 9 -2 0
BITMAP
3F
61
CF
82
CE
82
CF
61
3F
ENDCHAR
STARTCHAR 3000
ENCODING 12288
SWIDTH 1000 0
DWIDTH 16 0
BBX 0 0 0 0
BITMAP
ENDCHAR
ENDFONT
